<mxfile host="app.diagrams.net" modified="2021-07-05T05:28:31.317Z" agent="5.0 (Macintosh; Intel Mac OS X 10_14_6) AppleWebKit/537.36 (KHTML, like Gecko) Chrome/91.0.4472.114 Safari/537.36" etag="Tq51kghK9KvyPYjvOSPT" version="14.8.1" type="github">
  <diagram id="C5RBs43oDa-KdzZeNtuy" name="Page-1">
    <mxGraphModel dx="717" dy="634" grid="1" gridSize="10" guides="1" tooltips="1" connect="1" arrows="1" fold="1" page="1" pageScale="1" pageWidth="827" pageHeight="1169" math="0" shadow="0">
      <root>
        <mxCell id="WIyWlLk6GJQsqaUBKTNV-0" />
        <mxCell id="WIyWlLk6GJQsqaUBKTNV-1" parent="WIyWlLk6GJQsqaUBKTNV-0" />
        <mxCell id="rHN51Dme4pL90VXSnGvJ-0" value="微店下单" style="strokeWidth=2;html=1;shape=mxgraph.flowchart.start_1;whiteSpace=wrap;" vertex="1" parent="WIyWlLk6GJQsqaUBKTNV-1">
          <mxGeometry x="380" y="50" width="100" height="60" as="geometry" />
        </mxCell>
        <mxCell id="rHN51Dme4pL90VXSnGvJ-5" value="" style="endArrow=classic;html=1;exitX=0.5;exitY=1;exitDx=0;exitDy=0;exitPerimeter=0;" edge="1" parent="WIyWlLk6GJQsqaUBKTNV-1" source="rHN51Dme4pL90VXSnGvJ-0" target="rHN51Dme4pL90VXSnGvJ-7">
          <mxGeometry width="50" height="50" relative="1" as="geometry">
            <mxPoint x="360" y="340" as="sourcePoint" />
            <mxPoint x="340" y="150" as="targetPoint" />
          </mxGeometry>
        </mxCell>
        <mxCell id="rHN51Dme4pL90VXSnGvJ-6" value="" style="endArrow=classic;html=1;exitX=0.5;exitY=1;exitDx=0;exitDy=0;exitPerimeter=0;entryX=0.25;entryY=0;entryDx=0;entryDy=0;" edge="1" parent="WIyWlLk6GJQsqaUBKTNV-1" source="rHN51Dme4pL90VXSnGvJ-0" target="rHN51Dme4pL90VXSnGvJ-8">
          <mxGeometry width="50" height="50" relative="1" as="geometry">
            <mxPoint x="414" y="90" as="sourcePoint" />
            <mxPoint x="480" y="150" as="targetPoint" />
          </mxGeometry>
        </mxCell>
        <mxCell id="rHN51Dme4pL90VXSnGvJ-10" value="" style="edgeStyle=orthogonalEdgeStyle;rounded=0;orthogonalLoop=1;jettySize=auto;html=1;" edge="1" parent="WIyWlLk6GJQsqaUBKTNV-1" source="rHN51Dme4pL90VXSnGvJ-7" target="rHN51Dme4pL90VXSnGvJ-9">
          <mxGeometry relative="1" as="geometry" />
        </mxCell>
        <mxCell id="rHN51Dme4pL90VXSnGvJ-7" value="微店订单&lt;br&gt;只有1件商品" style="rounded=1;whiteSpace=wrap;html=1;" vertex="1" parent="WIyWlLk6GJQsqaUBKTNV-1">
          <mxGeometry x="280" y="150" width="120" height="60" as="geometry" />
        </mxCell>
        <mxCell id="rHN51Dme4pL90VXSnGvJ-16" value="" style="edgeStyle=orthogonalEdgeStyle;rounded=0;orthogonalLoop=1;jettySize=auto;html=1;" edge="1" parent="WIyWlLk6GJQsqaUBKTNV-1" source="rHN51Dme4pL90VXSnGvJ-8" target="rHN51Dme4pL90VXSnGvJ-15">
          <mxGeometry relative="1" as="geometry" />
        </mxCell>
        <mxCell id="rHN51Dme4pL90VXSnGvJ-8" value="微店订单&lt;br&gt;有N件商品" style="rounded=1;whiteSpace=wrap;html=1;" vertex="1" parent="WIyWlLk6GJQsqaUBKTNV-1">
          <mxGeometry x="450" y="150" width="120" height="60" as="geometry" />
        </mxCell>
        <mxCell id="rHN51Dme4pL90VXSnGvJ-12" value="" style="edgeStyle=orthogonalEdgeStyle;rounded=0;orthogonalLoop=1;jettySize=auto;html=1;" edge="1" parent="WIyWlLk6GJQsqaUBKTNV-1" source="rHN51Dme4pL90VXSnGvJ-9" target="rHN51Dme4pL90VXSnGvJ-11">
          <mxGeometry relative="1" as="geometry" />
        </mxCell>
        <mxCell id="rHN51Dme4pL90VXSnGvJ-14" value="" style="edgeStyle=orthogonalEdgeStyle;rounded=0;orthogonalLoop=1;jettySize=auto;html=1;" edge="1" parent="WIyWlLk6GJQsqaUBKTNV-1" source="rHN51Dme4pL90VXSnGvJ-9" target="rHN51Dme4pL90VXSnGvJ-13">
          <mxGeometry relative="1" as="geometry" />
        </mxCell>
        <mxCell id="rHN51Dme4pL90VXSnGvJ-9" value="订单转换" style="whiteSpace=wrap;html=1;rounded=1;" vertex="1" parent="WIyWlLk6GJQsqaUBKTNV-1">
          <mxGeometry x="280" y="290" width="120" height="60" as="geometry" />
        </mxCell>
        <mxCell id="rHN51Dme4pL90VXSnGvJ-11" value="买家&lt;br&gt;写入1条购买记录" style="whiteSpace=wrap;html=1;rounded=1;" vertex="1" parent="WIyWlLk6GJQsqaUBKTNV-1">
          <mxGeometry x="110" y="400" width="120" height="60" as="geometry" />
        </mxCell>
        <mxCell id="rHN51Dme4pL90VXSnGvJ-13" value="卖家1人&lt;br&gt;写入1条销售记录" style="whiteSpace=wrap;html=1;rounded=1;" vertex="1" parent="WIyWlLk6GJQsqaUBKTNV-1">
          <mxGeometry x="280" y="400" width="120" height="60" as="geometry" />
        </mxCell>
        <mxCell id="rHN51Dme4pL90VXSnGvJ-18" value="" style="edgeStyle=orthogonalEdgeStyle;rounded=0;orthogonalLoop=1;jettySize=auto;html=1;" edge="1" parent="WIyWlLk6GJQsqaUBKTNV-1" source="rHN51Dme4pL90VXSnGvJ-15" target="rHN51Dme4pL90VXSnGvJ-17">
          <mxGeometry relative="1" as="geometry" />
        </mxCell>
        <mxCell id="rHN51Dme4pL90VXSnGvJ-20" value="" style="edgeStyle=orthogonalEdgeStyle;rounded=0;orthogonalLoop=1;jettySize=auto;html=1;" edge="1" parent="WIyWlLk6GJQsqaUBKTNV-1" source="rHN51Dme4pL90VXSnGvJ-15" target="rHN51Dme4pL90VXSnGvJ-19">
          <mxGeometry relative="1" as="geometry" />
        </mxCell>
        <mxCell id="rHN51Dme4pL90VXSnGvJ-15" value="&lt;span&gt;按包含的商品数量转换订单&lt;br&gt;&lt;/span&gt;" style="whiteSpace=wrap;html=1;rounded=1;" vertex="1" parent="WIyWlLk6GJQsqaUBKTNV-1">
          <mxGeometry x="450" y="290" width="120" height="60" as="geometry" />
        </mxCell>
        <mxCell id="rHN51Dme4pL90VXSnGvJ-17" value="卖家1~N人&lt;br&gt;写入N条销售记录" style="whiteSpace=wrap;html=1;rounded=1;" vertex="1" parent="WIyWlLk6GJQsqaUBKTNV-1">
          <mxGeometry x="450" y="400" width="120" height="60" as="geometry" />
        </mxCell>
        <mxCell id="rHN51Dme4pL90VXSnGvJ-19" value="买家&lt;br&gt;写入N条购买记录" style="whiteSpace=wrap;html=1;rounded=1;" vertex="1" parent="WIyWlLk6GJQsqaUBKTNV-1">
          <mxGeometry x="620" y="400" width="120" height="60" as="geometry" />
        </mxCell>
      </root>
    </mxGraphModel>
  </diagram>
</mxfile>
